Coordinates
version=1
nRows=35
nColumns=18
inDegrees=yes

Units are S.I. units (second, meters, Newtons, ...)
If the header above contains a line with 'inDegrees', this indicates whether rotational values are in degrees (yes) or radians (no).

endheader
time	bJoint_3	seatpos	slocangle	soarinout	sblpos	hipangle	kneeangle	footangle	lbackangle	uarmleft_out	uarmleft_trn	uarmleft_up	se_inout	se_updown	handleleft_out	handleleft_trn	handleleft_up
      3.49500000	      0.00000002	     -0.01037991	    -15.71237549	     13.89926126	    -13.89926126	     88.14873809	     14.95076875	     13.09950683	    -28.39507627	     45.58839745	     15.81437542	    -46.86869564	    -26.06277188	      5.33991167	     -1.27630331	     47.06482637	     26.12319998
      3.50000000	      0.00000002	     -0.01147740	    -15.35424885	     13.89819142	    -13.89819142	     87.61198232	     15.95710714	     13.56908946	    -27.96456814	     45.33810651	     16.21215720	    -46.76556628	    -25.66825086	      4.96138005	     -1.43068349	     47.09537741	     26.56184919
      3.50500000	      0.00000002	     -0.01203784	    -15.00640869	     13.89989404	    -13.89989404	     87.35060908	     16.44741434	     13.79802342	    -27.54694336	     44.81918610	     16.62702953	    -46.56949486	    -24.88152447	      4.76171775	     -1.71197729	     46.83440509	     27.18010107
      3.51000000	      0.00000002	     -0.01304289	    -14.64315115	     13.89567787	    -13.89567787	     86.90053174	     17.29212275	     14.19265449	    -27.18714929	     44.31175563	     17.22010364	    -46.43530233	    -23.79816594	      4.33368201	     -2.20745992	     46.59011030	     27.80573493
      3.51500000	      0.00000002	     -0.01404175	    -14.29911837	     13.89741442	    -13.89741442	     86.47412211	     18.09289142	     14.56701353	    -26.82671245	     43.78209231	     17.63968052	    -46.25864428	    -22.94225312	      4.16932056	     -2.47896465	     46.28206539	     28.40349700
      3.52000000	      0.00000002	     -0.01498800	    -13.93332689	     13.89990273	    -13.89990273	     86.08698660	     18.82030860	     14.90729520	    -26.40439530	     43.32471973	     18.04680144	    -46.10436534	    -22.26496393	      3.93428968	     -2.67370153	     46.07700872	     28.93915446
      3.52500000	      0.00000002	     -0.01597220	    -13.58944600	     13.90044854	    -13.90044854	     85.69966450	     19.54845781	     15.24812231	    -26.04267735	     42.78204599	     18.47191052	    -45.94517665	    -21.38269520	      3.77574292	     -2.94617064	     45.75539423	     29.52699091
      3.53000000	      0.00000002	     -0.01694990	    -13.24604090	     13.90064326	    -13.90064326	     85.32874591	     20.24612528	     15.57487119	    -25.68018599	     42.23371223	     18.89896883	    -45.78308941	    -20.49083620	      3.61686275	     -3.20863038	     45.41783610	     30.10230741
      3.53500000	      0.00000002	     -0.01796779	    -12.86961168	     13.88698307	    -13.88698307	     84.95575635	     20.94803800	     15.90379435	    -25.24492623	     41.64710971	     19.27836570	    -45.58415307	    -19.66616953	      3.58056392	     -3.40262813	     45.06415172	     30.77373409
      3.54000000	      0.00000001	     -0.01897437	    -12.49147948	     13.87244022	    -13.87244022	     84.59885892	     21.61999487	     16.21885379	    -24.80722400	     41.36249066	     19.87829698	    -45.45753036	    -18.92507419	      2.87512158	     -3.72579099	     44.96771477	     31.14543329
      3.54500000	      0.00000001	     -0.02085745	    -12.12080474	     13.89894541	    -13.89894541	     83.95947175	     22.82461225	     16.78408401	    -24.51637032	     40.83261838	     20.34722086	    -45.39336768	    -17.99940720	      2.64089729	     -3.93676716	     44.65342588	     31.58898966
      3.55000000	      0.00000001	     -0.02184429	    -11.74469547	     13.88247779	    -13.88247779	     83.63755934	     23.43148649	     17.06904583	    -24.07887893	     40.22142800	     20.73655214	    -45.21655399	    -17.12503090	      2.61277326	     -4.13195763	     44.27128465	     32.24497361
      3.55500000	      0.00000001	     -0.02275741	    -11.37723899	     13.86895520	    -13.86895520	     83.34696864	     23.97953324	     17.32650189	    -23.65024444	     39.70286115	     21.19058841	    -45.07332553	    -16.27608922	      2.37433338	     -4.36277356	     43.96339769	     32.78131839
      3.56000000	      0.00000001	     -0.02477758	    -11.00348198	     13.88413357	    -13.88413357	     82.72661060	     25.15021106	     17.87682165	    -23.33615920	     39.25201977	     21.58850668	    -45.02041888	    -15.55534263	      2.17675872	     -4.46848953	     43.72309159	     33.18440358
      3.56500000	      0.00000001	     -0.02600652	    -10.63955574	     13.88043635	    -13.88043635	     82.36299438	     25.83683169	     18.19982608	    -22.95280390	     38.72985621	     22.03339847	    -44.91707702	    -14.69307121	      1.95994460	     -4.67057715	     43.40432502	     33.66955031
      3.57000000	      0.00000001	     -0.02786832	    -10.26049793	     13.85836749	    -13.85836749	     81.82985715	     26.84414686	     18.67400401	    -22.59529559	     38.13441738	     22.43896733	    -44.77396876	    -13.73404950	      1.96266763	     -4.84837106	     42.98049878	     34.29633111
      3.57500000	      0.00000001	     -0.02885931	     -9.87217162	     13.86670668	    -13.86670668	     81.55408589	     27.36546459	     18.91955048	    -22.14351882	     37.78252767	     22.91644322	    -44.73186454	    -13.14761421	      1.42503642	     -4.98196153	     42.87094725	     34.56525798
      3.58000000	      0.00000001	     -0.03070431	     -9.49319391	     13.85244966	    -13.85244966	     81.05418927	     28.31094129	     19.36513056	    -21.78992544	     37.17393406	     23.31834901	    -44.62823403	    -12.18953592	      1.42609103	     -5.14443510	     42.45288615	     35.15089333
      3.58500000	      0.00000001	     -0.03288160	     -9.10182195	     13.85707677	    -13.85707677	     80.48492172	     29.38836160	     19.87328332	    -21.46862034	     36.66625852	     23.83589232	    -44.58299286	    -11.20598711	      1.11240063	     -5.35143766	     42.10566556	     35.56192043
      3.59000000	      0.00000001	     -0.03387665	     -8.70352875	     13.86868734	    -13.86868734	     80.23158308	     29.86809369	     20.09967677	    -21.00734027	     36.19095181	     24.24306630	    -44.56044245	    -10.58189315	      0.79021417	     -5.42750721	     41.91988365	     35.89622750
      3.59500000	      0.00000001	     -0.03573956	     -8.32761199	     13.84287129	    -13.84287129	     79.76789406	     30.74655541	     20.51444947	    -20.65025936	     35.55568480	     24.66684843	    -44.46030244	     -9.53554690	      0.80734380	     -5.61433630	     41.45247047	     36.50143278
      3.60000000	      0.00000001	     -0.03788862	     -7.90196252	     13.82705421	    -13.82705421	     79.24887958	     31.73044661	     20.97932619	    -20.25161013	     34.97031053	     25.15657033	    -44.39213387	     -8.53413080	      0.62008619	     -5.77841760	     41.05533041	     37.01438908
      3.60500000	      0.00000001	     -0.03977584	     -7.50759566	     13.84017407	    -13.84017407	     78.80597814	     32.57056364	     21.37654178	    -19.88606106	     34.64076850	     25.64323969	    -44.40964776	     -7.88928118	      0.06092180	     -5.88234597	     40.90897317	     37.19964074
      3.61000000	      0.00000001	     -0.04193496	     -7.11096489	     13.83819967	    -13.83819967	     78.31281991	     33.50656457	     21.81938448	    -19.54479386	     33.99185306	     26.10467289	    -44.39199303	     -6.80969216	     -0.01710268	     -6.05308155	     40.45607421	     37.69916251
      3.61500000	      0.00000001	     -0.04379655	     -6.73715325	     13.82003738	    -13.82003738	     77.89836350	     34.29364263	     22.19200613	    -19.19119397	     33.32295547	     26.53740946	    -44.34806725	     -5.72013658	     -0.00138566	     -6.22981555	     39.97071400	     38.25270319
      3.62000000	      0.00000001	     -0.04592297	     -6.31238224	     13.80241704	    -13.80241704	     77.43621995	     35.17176660	     22.60798655	    -18.77681731	     32.91773162	     27.00473748	    -44.32914100	     -4.99641379	     -0.40529299	     -6.31855926	     39.74322629	     38.58126867
      3.62500000	      0.00000001	     -0.04782744	     -5.91299588	     13.80807005	    -13.80807005	     77.03182546	     35.94058016	     22.97240562	    -18.40867416	     32.23654852	     27.47099723	    -44.35113912	     -3.91454120	     -0.51245953	     -6.47308715	     39.29046282	     39.02765359
      3.63000000	      0.00000001	     -0.04992366	     -5.48544879	     13.79882444	    -13.79882444	     76.59640940	     36.76880740	     23.36521680	    -17.99539658	     31.81482438	     27.94093927	    -44.36284175	     -3.18316817	     -0.94288106	     -6.55040224	     39.05914776	     39.30983474
      3.63500000	      0.00000001	     -0.05184245	     -5.09079912	     13.79410601	    -13.79410601	     76.20619603	     37.51143722	     23.71763325	    -17.62346351	     31.11807145	     28.41664789	    -44.39098224	     -2.04961879	     -1.02899221	     -6.72206904	     38.57675232	     39.77848012
      3.64000000	      0.00000000	     -0.05394552	     -4.63491497	     13.80879328	    -13.80879328	     75.78710506	     38.30943023	     24.09653529	    -17.19225124	     30.68882320	     28.91281943	    -44.46051192	     -1.34656662	     -1.59820838	     -6.76818464	     38.37982263	     39.94293010
      3.64500000	      0.00000000	     -0.05602645	     -4.24402213	     13.80518773	    -13.80518773	     75.38075378	     39.08356616	     24.46431995	    -16.83858570	     29.98677679	     29.38523646	    -44.51473625	     -0.19426702	     -1.67183705	     -6.93565174	     37.88601653	     40.39583561
      3.65000000	      0.00000000	     -0.05793456	     -3.81536545	     13.79217307	    -13.79217307	     75.01501244	     39.78067387	     24.79568631	    -16.40259190	     29.52211429	     29.87475545	    -44.55227521	      0.60203895	     -2.12894092	     -7.01943187	     37.61290246	     40.65200208
      3.65500000	      0.00000000	     -0.06097917	     -3.38532050	     13.77383362	    -13.77383362	     74.44417735	     40.86933194	     25.31350929	    -16.06582561	     28.78876662	     30.33529496	    -44.62077309	      1.82095509	     -2.08094320	     -7.16545970	     37.07829437	     41.20075446
      3.66000000	      0.00000000	     -0.06302725	     -2.93202651	     13.78791591	    -13.78791591	     74.06846610	     41.58628841	     25.65475451	    -15.63989484	     28.32024226	     30.64167596	    -44.71580154	      2.30026100	     -2.37544607	     -7.07599270	     36.93694208	     41.39336130
      3.66500000	      0.00000000	     -0.06497290	     -2.54343014	     13.78265848	    -13.78265848	     73.71735582	     42.25660531	     25.97396113	    -15.26845306	     27.57892997	     31.12246620	    -44.80898139	      3.49445308	     -2.45567616	     -7.24310643	     36.41975963	     41.82073588
